<svg width="66" height="65" viewBox="0 0 66 65" fill="none" xmlns="http://www.w3.org/2000/svg">
<g clip-path="url(#clip0)">
<path d="M64.1417 65.0001H50.6085C49.8594 65.0001 49.2501 64.3907 49.2501 63.6417C49.2501 62.8927 49.8594 62.2833 50.6085 62.2833H61.8565L49.3262 39.5079L44.1719 50.1974C43.8418 50.8702 43.042 51.1495 42.3565 50.8195C41.6836 50.4894 41.4043 49.6896 41.7344 49.004L48.044 35.9659C48.2598 35.5089 48.7168 35.2169 49.2247 35.2042C49.7325 35.2296 50.2022 35.4581 50.4434 35.9025L65.335 62.9816C65.5635 63.4005 65.5635 63.9083 65.3096 64.3273C65.0684 64.7462 64.6241 65.0001 64.1417 65.0001Z" fill="black"/>
<path d="M26.2334 20.3125C25.4844 20.3125 24.875 19.7031 24.875 18.9541V1.3584C24.875 0.609375 25.4844 0 26.2334 0H42.4834C43.0293 0 43.5244 0.330078 43.7402 0.837891C43.956 1.3457 43.8291 1.92969 43.4482 2.31055L38.9922 6.7666L43.4482 11.2227C43.8418 11.6162 43.956 12.1875 43.7402 12.6953C43.5371 13.2031 43.042 13.5332 42.4961 13.5332H27.5791V18.9541C27.5791 19.7031 26.9824 20.3125 26.2334 20.3125ZM27.5791 10.8291H39.208L36.1103 7.73145C35.5771 7.19824 35.5771 6.34766 36.1103 5.81445L39.208 2.7041H27.5791V10.8291Z" fill="black"/>
<path d="M51.7887 62.9941L36.0973 34.2265C36.0593 34.1249 36.0085 34.0361 35.945 33.9472L27.4137 18.3066C26.944 17.4433 25.5094 17.4433 25.0397 18.3066L16.5085 33.9472C16.445 34.0361 16.3942 34.1249 16.3561 34.2265L0.664718 62.9941C0.436202 63.413 0.448898 63.9208 0.690109 64.3398C0.93132 64.7587 1.37566 64.9999 1.85808 64.9999H50.6081C51.0905 64.9999 51.5348 64.746 51.7761 64.3398C52.0173 63.9208 52.0173 63.413 51.7887 62.9941ZM26.2331 21.7851L33.1647 34.4931L30.4479 37.2099L27.3249 33.0458C26.8171 32.3603 25.6618 32.3603 25.154 33.0458L22.0309 37.2099L19.3141 34.4931L26.2331 21.7851ZM4.13054 62.2958L17.943 36.9687L21.2057 40.2314C21.485 40.5107 21.8532 40.6503 22.2594 40.6249C22.653 40.5995 23.0085 40.3964 23.2497 40.0917L26.2331 36.1181L29.2165 40.0917C29.4577 40.4091 29.8132 40.5995 30.2067 40.6249C30.2448 40.6249 30.2702 40.6249 30.3083 40.6249C30.6637 40.6249 31.0065 40.4853 31.2604 40.2314L34.5231 36.9687L48.3356 62.2958H4.13054Z" fill="black"/>
<path d="M27.5791 10.8293H39.208L36.1104 7.73163C35.5772 7.19843 35.5772 6.34784 36.1104 5.81464L39.208 2.70428H27.5791V10.8293Z" fill="#FFEB6E"/>
<path d="M26.2334 21.7851L33.165 34.4931L30.4483 37.2099L27.3252 33.0458C26.8174 32.3603 25.6621 32.3603 25.1543 33.0458L22.0313 37.2099L19.3145 34.4931L26.2334 21.7851Z" fill="#FFEB6E"/>
</g>
<defs>
<clipPath id="clip0">
<rect width="65" height="65" fill="white" transform="translate(0.5)"/>
</clipPath>
</defs>
</svg>
