<svg width="65" height="53" viewBox="0 0 65 53" fill="none" xmlns="http://www.w3.org/2000/svg">
<path d="M31.2305 11.405V18.3113C31.2305 19.0095 31.8018 19.5808 32.5 19.5808C33.1982 19.5808 33.7695 19.0095 33.7695 18.3113V11.405C36.0928 10.8337 37.832 8.72632 37.832 6.22534C37.832 3.28003 35.4453 0.893311 32.5 0.893311C29.5547 0.893311 27.168 3.28003 27.168 6.22534C27.168 8.72632 28.9072 10.8337 31.2305 11.405ZM32.5 3.43237C34.0361 3.43237 35.293 4.68921 35.293 6.22534C35.293 7.76148 34.0361 9.01831 32.5 9.01831C30.9639 9.01831 29.707 7.76148 29.707 6.22534C29.707 4.68921 30.9639 3.43237 32.5 3.43237Z" fill="black"/>
<path d="M7.10938 11.405V18.3113C7.10938 19.0095 7.68066 19.5808 8.37891 19.5808C9.07715 19.5808 9.64844 19.0095 9.64844 18.3113V11.405C11.9717 10.8337 13.7109 8.72632 13.7109 6.22534C13.7109 3.28003 11.3242 0.893311 8.37891 0.893311C5.43359 0.893311 3.04688 3.28003 3.04688 6.22534C3.04688 8.72632 4.78613 10.8337 7.10938 11.405ZM8.37891 3.43237C9.91504 3.43237 11.1719 4.68921 11.1719 6.22534C11.1719 7.76148 9.91504 9.01831 8.37891 9.01831C6.84277 9.01831 5.58594 7.76148 5.58594 6.22534C5.58594 4.68921 6.84277 3.43237 8.37891 3.43237Z" fill="black"/>
<path d="M45.8301 41.6328V34.8788C45.8301 34.1806 45.2588 33.6093 44.5605 33.6093C43.8623 33.6093 43.291 34.1806 43.291 34.8788V41.6328C40.9678 42.204 39.2285 44.3115 39.2285 46.8124C39.2285 49.7578 41.6152 52.1445 44.5605 52.1445C47.5059 52.1445 49.8926 49.7578 49.8926 46.8124C49.8926 44.3115 48.1533 42.204 45.8301 41.6328ZM44.5605 49.6054C43.0244 49.6054 41.7676 48.3486 41.7676 46.8124C41.7676 45.2763 43.0244 44.0195 44.5605 44.0195C46.0967 44.0195 47.3535 45.2763 47.3535 46.8124C47.3535 48.3486 46.0967 49.6054 44.5605 49.6054Z" fill="black"/>
<path d="M21.709 41.6328V40.5917C21.709 39.8935 21.1377 39.3222 20.4395 39.3222C19.7412 39.3222 19.1699 39.8935 19.1699 40.5917V41.6328C16.8467 42.204 15.1074 44.3115 15.1074 46.8124C15.1074 49.7578 17.4941 52.1445 20.4395 52.1445C23.3848 52.1445 25.7715 49.7578 25.7715 46.8124C25.7715 44.3115 24.0322 42.204 21.709 41.6328ZM20.4395 49.6054C18.9033 49.6054 17.6465 48.3486 17.6465 46.8124C17.6465 45.2763 18.9033 44.0195 20.4395 44.0195C21.9756 44.0195 23.2324 45.2763 23.2324 46.8124C23.2324 48.3486 21.9756 49.6054 20.4395 49.6054Z" fill="black"/>
<path d="M63.7305 25.2305H60.7344C60.2012 23.6055 58.6777 22.4375 56.875 22.4375C55.0723 22.4375 53.5488 23.6055 53.0156 25.2305H48.4199C47.8867 23.6055 46.3633 22.4375 44.5605 22.4375C42.7578 22.4375 41.2344 23.6055 40.7012 25.2305H36.3594C35.8262 23.6055 34.3027 22.4375 32.5 22.4375C30.6973 22.4375 29.1738 23.6055 28.6406 25.2305H24.2988C23.7656 23.6055 22.2422 22.4375 20.4395 22.4375C18.6367 22.4375 17.1133 23.6055 16.5801 25.2305H11.9844C11.4512 23.6055 9.92773 22.4375 8.125 22.4375C6.32227 22.4375 4.79883 23.6055 4.26562 25.2305H1.26953C0.571289 25.2305 0 25.8018 0 26.5C0 27.1982 0.571289 27.7695 1.26953 27.7695H4.26562C4.79883 29.3945 6.32227 30.5625 8.125 30.5625C9.92773 30.5625 11.4512 29.3945 11.9844 27.7695H16.5801C17.1133 29.3945 18.6367 30.5625 20.4395 30.5625C22.2422 30.5625 23.7656 29.3945 24.2988 27.7695H28.6406C29.1738 29.3945 30.6973 30.5625 32.5 30.5625C34.3027 30.5625 35.8262 29.3945 36.3594 27.7695H40.7012C41.2344 29.3945 42.7578 30.5625 44.5605 30.5625C46.3633 30.5625 47.8867 29.3945 48.4199 27.7695H53.0156C53.5488 29.3945 55.0723 30.5625 56.875 30.5625C58.6777 30.5625 60.2012 29.3945 60.7344 27.7695H63.7305C64.4287 27.7695 65 27.1982 65 26.5C65 25.8018 64.4287 25.2305 63.7305 25.2305ZM8.125 28.0234C7.28711 28.0234 6.60156 27.3379 6.60156 26.5C6.60156 25.6621 7.28711 24.9766 8.125 24.9766C8.96289 24.9766 9.64844 25.6621 9.64844 26.5C9.64844 27.3379 8.96289 28.0234 8.125 28.0234ZM20.4395 28.0234C19.6016 28.0234 18.916 27.3379 18.916 26.5C18.916 25.6621 19.6016 24.9766 20.4395 24.9766C21.2773 24.9766 21.9629 25.6621 21.9629 26.5C21.9629 27.3379 21.2773 28.0234 20.4395 28.0234ZM32.5 28.0234C31.6621 28.0234 30.9766 27.3379 30.9766 26.5C30.9766 25.6621 31.6621 24.9766 32.5 24.9766C33.3379 24.9766 34.0234 25.6621 34.0234 26.5C34.0234 27.3379 33.3379 28.0234 32.5 28.0234ZM44.5605 28.0234C43.7227 28.0234 43.0371 27.3379 43.0371 26.5C43.0371 25.6621 43.7227 24.9766 44.5605 24.9766C45.3984 24.9766 46.084 25.6621 46.084 26.5C46.084 27.3379 45.3984 28.0234 44.5605 28.0234ZM56.875 28.0234C56.0371 28.0234 55.3516 27.3379 55.3516 26.5C55.3516 25.6621 56.0371 24.9766 56.875 24.9766C57.7129 24.9766 58.3984 25.6621 58.3984 26.5C58.3984 27.3379 57.7129 28.0234 56.875 28.0234Z" fill="black"/>
<path d="M56.6211 19.3904C57.3193 19.3904 57.8906 18.8192 57.8906 18.1209V11.0623L64.3652 7.3299C64.7588 7.10138 65 6.68243 65 6.2254C65 5.76837 64.7588 5.34943 64.3652 5.12091L57.2559 1.02032C56.8623 0.791809 56.3799 0.791809 55.9863 1.02032C55.5928 1.24884 55.3516 1.66779 55.3516 2.12482V18.1209C55.3516 18.8192 55.9229 19.3904 56.6211 19.3904ZM57.8906 4.32111L61.1914 6.2254L57.8906 8.1297V4.32111Z" fill="black"/>
<path d="M20.4395 36.1484C20.7695 36.1484 21.0996 36.0087 21.3408 35.7802C21.582 35.539 21.709 35.2216 21.709 34.8788C21.709 34.5361 21.5693 34.2187 21.3408 33.9775C21.1123 33.7363 20.7822 33.6093 20.4395 33.6093C20.0967 33.6093 19.7793 33.749 19.5381 33.9775C19.2969 34.2187 19.1699 34.5361 19.1699 34.8788C19.1699 35.2216 19.3096 35.539 19.5381 35.7802C19.7793 36.0087 20.1094 36.1484 20.4395 36.1484Z" fill="black"/>
</svg>
