<svg width="72" height="72" viewBox="0 0 72 72" fill="none" xmlns="http://www.w3.org/2000/svg">
<path d="M52.875 52.875C52.2563 52.875 51.75 53.3813 51.75 54V57.3328C49.8375 57.1359 48.1219 56.0953 47.0672 54.4922L45.1969 55.7437C46.6734 57.9656 49.0922 59.3859 51.7641 59.5969V63C51.7641 65.4891 49.7531 67.5 47.2641 67.5H21.375V48.0797C27.6891 46.0406 32.1328 40.3734 32.5828 33.75H50.9625L58.0078 52.875H52.875Z" fill="#FFEB6E"/>
<path d="M52.8049 32.2314C52.6361 31.7955 52.2143 31.5001 51.7502 31.5001C53.6205 29.0251 53.1143 25.4955 50.6393 23.6251C50.5127 23.5408 50.4002 23.4423 50.2596 23.372C51.3565 20.4611 49.908 17.2126 46.9971 16.1158C45.4221 15.5251 43.6783 15.6517 42.2158 16.4814C40.7533 13.0501 36.8018 11.447 33.3564 12.9095C31.7393 13.5986 30.4596 14.8783 29.7846 16.4814C27.0846 14.9486 23.6533 15.8908 22.1064 18.5908C21.2768 20.0533 21.1361 21.797 21.7408 23.372C19.7439 24.6376 18.7455 27.0142 19.2518 29.3205L21.4455 28.8423C21.0799 27.183 22.0221 25.4955 23.6252 24.933C24.2158 24.722 24.5252 24.0892 24.3143 23.4986C24.2861 23.4142 24.2439 23.3298 24.1877 23.2455C23.1471 21.6986 23.5689 19.6033 25.1158 18.5626C26.3955 17.7048 28.1111 17.8173 29.2502 18.858C29.2502 18.9423 29.2502 19.0267 29.2502 19.1111C29.2502 20.0392 29.4471 20.9533 29.8127 21.8111L31.8799 20.9111C31.6268 20.3486 31.5002 19.7298 31.5002 19.1111C31.5002 18.9283 31.5143 18.7455 31.5283 18.5767C31.8236 16.1158 34.0736 14.358 36.5346 14.6533C38.5877 14.9064 40.2049 16.5236 40.458 18.5767C40.5283 19.1955 41.0908 19.6314 41.7096 19.5611C41.9908 19.533 42.244 19.3923 42.4268 19.1814C43.6361 17.7751 45.7736 17.6064 47.1799 18.8298C48.4736 19.9408 48.7268 21.8392 47.7846 23.2595C47.433 23.7798 47.5736 24.4689 48.094 24.8205C48.1783 24.8767 48.2627 24.9189 48.3471 24.947C50.1049 25.5658 51.033 27.4923 50.4143 29.2501C49.9361 30.6001 48.6565 31.5142 47.2221 31.5142H36.2815C35.6908 30.6002 35.958 29.3767 36.8721 28.8001C37.1533 28.6173 37.4768 28.5189 37.8143 28.4908L37.6736 26.2408C35.3533 26.3814 33.5814 28.3923 33.7221 30.7126C33.7361 30.9798 33.7783 31.247 33.8486 31.5142H20.208C19.5893 31.5142 19.083 32.0205 19.083 32.6392V68.6392C19.083 69.258 19.5893 69.7642 20.208 69.7642H47.208C50.9346 69.7642 53.958 66.7408 53.958 63.0142V55.1392H59.583C60.2018 55.1392 60.708 54.633 60.708 54.0142C60.708 53.8876 60.6799 53.747 60.6377 53.6205L52.8049 32.2314ZM21.3752 42.7502H26.0439C24.708 44.0298 23.1189 45.0423 21.3752 45.7033V42.7502ZM27.9424 40.5002H21.3752V38.2502H29.1939C28.8564 39.0377 28.4346 39.797 27.9424 40.5002ZM30.333 33.7502C30.2768 34.5095 30.1502 35.2548 29.9674 36.0002H21.3752V33.7502H30.333ZM52.8752 52.8751C52.2565 52.8751 51.7502 53.3814 51.7502 54.0001V57.333C49.8377 57.1361 48.1221 56.0955 47.0674 54.4923L45.1971 55.7439C46.6736 57.9658 49.0924 59.3861 51.7643 59.597V63.0002C51.7643 65.4892 49.7533 67.5002 47.2643 67.5002H21.3752V48.0798C27.6893 46.0408 32.133 40.3736 32.583 33.7502H50.9627L58.008 52.8751H52.8752Z" fill="black"/>
<path d="M28.3219 26.1564C28.8 26.1564 29.2641 26.3252 29.6297 26.6486L31.1203 24.9611C29.3766 23.4143 26.7047 23.583 25.1719 25.3408C24.4969 26.1143 24.1172 27.0986 24.1172 28.1252H26.3672C26.3672 27.0424 27.2391 26.1564 28.3219 26.1564Z" fill="black"/>
<path d="M43.2988 23.5547C43.6363 23.8922 43.8473 24.3422 43.8754 24.8204L46.1254 24.6797C45.9848 22.3594 43.9738 20.5875 41.6535 20.7282C40.627 20.7985 39.6566 21.2344 38.9395 21.9516L40.5285 23.5407C41.2879 22.7813 42.5395 22.7813 43.2988 23.5547Z" fill="black"/>
<path d="M34.875 6.75H37.125V10.125H34.875V6.75Z" fill="black"/>
<path d="M34.875 2.25H37.125V4.5H34.875V2.25Z" fill="black"/>
<path d="M2.25 25.875H5.625V28.125H2.25V25.875Z" fill="black"/>
<path d="M7.875 25.875H16.875V28.125H7.875V25.875Z" fill="black"/>
<path d="M1.82812 14.541L2.65781 12.4597L4.90781 13.3597L4.07812 15.441L1.82812 14.541Z" fill="black"/>
<path d="M6.32812 16.3407L7.15781 14.2595L19.5328 19.2095L18.7031 21.2907L6.32812 16.3407Z" fill="black"/>
<path d="M22.6123 2.75634L24.6232 1.74384L25.7482 3.99384L23.7373 5.00634L22.6123 2.75634Z" fill="black"/>
<path d="M24.8623 7.25633L26.8732 6.24384L30.2482 12.9938L28.2373 14.0063L24.8623 7.25633Z" fill="black"/>
<path d="M10.9688 6.46875L12.4594 4.78125L22.6969 13.7812L21.2063 15.4688L10.9688 6.46875Z" fill="black"/>
<path d="M7.12988 3.09375L8.62051 1.40625L10.8705 3.38906L9.37988 5.07656L7.12988 3.09375Z" fill="black"/>
<path d="M66.375 25.875H69.75V28.125H66.375V25.875Z" fill="black"/>
<path d="M55.125 25.875H64.125V28.125H55.125V25.875Z" fill="black"/>
<path d="M67.0498 13.3737L69.2998 12.4737L70.1295 14.5549L67.8795 15.4549L67.0498 13.3737Z" fill="black"/>
<path d="M52.4248 19.2095L64.7998 14.2595L65.6295 16.3407L53.2545 21.2907L52.4248 19.2095Z" fill="black"/>
<path d="M46.2373 4.02222L47.3623 1.77222L49.3732 2.78472L48.2482 5.03472L46.2373 4.02222Z" fill="black"/>
<path d="M41.7373 13.0078L45.1123 6.25781L47.1232 7.27031L43.7482 14.0203L41.7373 13.0078Z" fill="black"/>
<path d="M49.3311 13.7673L59.5686 4.76727L61.0592 6.45477L50.8217 15.4548L49.3311 13.7673Z" fill="black"/>
<path d="M61.1436 3.36111L63.3936 1.3783L64.8842 3.0658L62.6342 5.04861L61.1436 3.36111Z" fill="black"/>
<path d="M43.875 45.5625C43.875 47.1094 42.6094 48.375 41.0625 48.375C39.5156 48.375 38.25 47.1094 38.25 45.5625V43.875H36V45.5625C36 48.3609 38.2641 50.625 41.0625 50.625C43.8609 50.625 46.125 48.3609 46.125 45.5625V43.875H43.875V45.5625Z" fill="black"/>
</svg>
