<svg width="64" height="65" viewBox="0 0 64 65" fill="none" xmlns="http://www.w3.org/2000/svg">
<g clip-path="url(#clip0)">
<path d="M52.65 36.588H47.875C48.0625 36.004 48.1625 35.3946 48.1625 34.7599C48.1625 31.3702 45.25 28.628 41.9375 28.8565C41.4375 28.8946 40.95 28.9962 40.5 29.1485C40.1375 28.7042 39.775 28.3614 39.55 27.8282C38.8 26.0509 39.7375 23.9562 41.525 23.3214C43.0875 22.7755 44.875 23.5245 45.6 25.0353C45.825 25.505 45.9375 26.0128 45.9375 26.5333C45.925 28.0567 47.5125 29.1358 48.9 28.5392L53.7875 26.4317C55.625 25.6446 56.5125 23.423 55.725 21.544L47.65 2.25987C46.8625 0.393657 44.675 -0.50771 42.8375 0.292095L23.85 8.48057C22.0125 9.26768 21.125 11.4894 21.9125 13.3683L23.775 17.837C23.175 17.8878 22.575 18.0401 22.0125 18.2814C18.95 19.6017 17.5875 23.3976 19.1 26.4064C20.4375 29.0724 23.525 30.3038 26.3 29.2628C26.975 29.0089 27.575 28.6407 28.1125 28.1837L29.975 32.6524C30.75 34.5187 32.9375 35.42 34.7875 34.6202L36.6 33.8458C36.4625 34.7599 36.525 35.712 36.8125 36.588H32.0375C31.1125 36.588 30.2625 36.9435 29.6125 37.5147C28.9625 36.9435 28.125 36.588 27.2 36.588H21.875C20.375 36.588 19.3125 38.2003 19.9125 39.6095C20.1 40.0411 20.1875 40.4855 20.1875 40.9552C20.1875 42.8849 18.525 44.4591 16.6375 44.3194C14.9875 44.2052 13.6375 42.8087 13.55 41.1202C13.525 40.587 13.6125 40.0792 13.8125 39.6095C14.4125 38.2003 13.3625 36.588 11.8625 36.588H6.55C4.525 36.588 2.875 38.2638 2.875 40.3204V61.2677C2.875 63.3243 4.525 65.0001 6.55 65.0001H11.0375C11.725 65.0001 12.2875 64.4288 12.2875 63.7306C12.2875 63.0323 11.725 62.461 11.0375 62.461H6.55C5.9 62.461 5.375 61.9278 5.375 61.2677V40.3204C5.375 39.6603 5.9 39.1271 6.55 39.1271H11.325C11.1125 39.8126 11.0125 40.5235 11.05 41.2472C11.2 44.2433 13.525 46.6427 16.4625 46.8458C19.775 47.0743 22.6875 44.3321 22.6875 40.9425C22.6875 40.3204 22.5875 39.6983 22.4 39.1144H27.175C27.825 39.1144 28.35 39.6476 28.35 40.3077V45.7032C28.35 47.2267 29.9375 48.2931 31.325 47.6837C31.7875 47.4806 32.2875 47.379 32.8125 47.4044C34.4625 47.4806 35.85 48.8644 35.9625 50.5274C36.0875 52.3683 34.6375 54.044 32.8125 54.1329C32.3 54.1583 31.7875 54.0694 31.325 53.8663C29.9375 53.2569 28.35 54.3233 28.35 55.8595V61.255C28.35 61.9151 27.825 62.4483 27.175 62.4483H22C21.3125 62.4483 20.75 63.0196 20.75 63.7179C20.75 64.4161 21.3125 64.9874 22 64.9874H27.175C28.1 64.9874 28.95 64.6319 29.6 64.0606C30.25 64.6319 31.0875 64.9874 32.0125 64.9874H52.6375C54.6625 64.9874 56.3125 63.3116 56.3125 61.255V40.3077C56.3125 38.2638 54.675 36.588 52.65 36.588ZM33.8 32.2843C33.2125 32.5382 32.5125 32.2462 32.2625 31.6495L30.1875 26.6856C29.6 25.2765 27.725 24.9337 26.6875 26.0382C26.3375 26.419 25.9125 26.6983 25.425 26.8761C23.875 27.4601 22.075 26.7364 21.325 25.2511C20.4625 23.5245 21.2375 21.3663 22.9875 20.6046C23.4 20.4269 23.8375 20.338 24.2875 20.338C25.8 20.338 26.9 18.7765 26.2875 17.3292L24.2125 12.3653C23.9625 11.7687 24.2375 11.0704 24.8375 10.8038L43.825 2.61534C44.4125 2.36143 45.1125 2.65342 45.3625 3.2501L53.425 22.5343C53.675 23.131 53.3875 23.8419 52.8 24.0958L48.4 25.9874C48.3375 25.2765 48.15 24.5782 47.8375 23.9181C46.55 21.2267 43.4875 19.9317 40.7 20.9093C37.5625 22.0138 35.9375 25.6954 37.2375 28.8058C37.475 29.3771 37.8 29.9103 38.2 30.38L33.8 32.2843ZM53.8125 61.2677C53.8125 61.9278 53.2875 62.461 52.6375 62.461H32.0125C31.3625 62.461 30.8375 61.9278 30.8375 61.2677V56.4181C31.7625 56.7228 32.75 56.7862 33.7 56.6085C36.475 56.088 38.5125 53.5362 38.4625 50.6798C38.4 47.506 35.7625 44.878 32.6375 44.878C32.025 44.878 31.4125 44.9796 30.8375 45.17V40.3204C30.8375 39.6603 31.3625 39.1271 32.0125 39.1271H37.325C38.05 39.1271 38.7125 38.7589 39.1125 38.1495C39.5125 37.5401 39.575 36.7784 39.2875 36.1056C39.0875 35.6358 39 35.128 39.0125 34.5948C39.0875 32.919 40.45 31.5099 42.0875 31.3956C43.9875 31.256 45.65 32.8302 45.65 34.7599C45.65 35.2296 45.5625 35.6866 45.375 36.1056C45.0875 36.7657 45.15 37.5274 45.55 38.1368C45.95 38.7589 46.6125 39.1271 47.3375 39.1271H52.65C53.3 39.1271 53.825 39.6603 53.825 40.3204L53.8125 61.2677Z" fill="black"/>
<path d="M18.3871 15.4631C18.5496 15.4631 18.7246 15.425 18.8871 15.3615C19.5246 15.0822 19.8121 14.3332 19.5371 13.6984C18.7246 11.7814 19.0996 9.55975 20.4996 8.03631C20.9746 7.5285 20.9371 6.716 20.4371 6.24628C19.9371 5.76385 19.1371 5.80194 18.6746 6.30975C16.5996 8.56952 16.0496 11.8703 17.2496 14.7014C17.4496 15.1711 17.9121 15.4631 18.3871 15.4631Z" fill="black"/>
<path d="M60.3127 19.3223C60.0252 18.6875 59.2877 18.4082 58.6627 18.6875C58.0377 18.9795 57.7627 19.7285 58.0377 20.3633C59.0127 22.5342 58.7502 25.0732 57.3752 26.9902C56.9627 27.5615 57.0877 28.3486 57.6502 28.7676C58.2002 29.1738 59.0002 29.0469 59.4002 28.4883C61.3002 25.835 61.6627 22.3184 60.3127 19.3223Z" fill="black"/>
<path d="M17.7124 63.248C17.4499 62.6133 16.7124 62.2959 16.0749 62.5625C15.4499 62.8291 15.1374 63.5781 15.3999 64.2256C15.6624 64.8603 16.3999 65.1777 17.0374 64.9111C17.6624 64.6318 17.9749 63.8828 17.7124 63.248Z" fill="black"/>
<path d="M33.7996 32.2842C33.2121 32.5381 32.5121 32.2461 32.2621 31.6494L30.1871 26.6856C29.5996 25.2764 27.7246 24.9336 26.6871 26.0381C26.3371 26.419 25.9121 26.6983 25.4246 26.876C23.8746 27.46 22.0746 26.7363 21.3246 25.251C20.4621 23.5244 21.2371 21.3662 22.9871 20.6045C23.3996 20.4268 23.8371 20.3379 24.2871 20.3379C25.7996 20.3379 26.8996 18.7764 26.2871 17.3291L24.2121 12.3652C23.9621 11.7686 24.2371 11.0703 24.8371 10.8037L43.8246 2.61524C44.4121 2.36134 45.1121 2.65333 45.3621 3.25001L53.4246 22.5342C53.6746 23.1309 53.3871 23.8418 52.7996 24.0957L48.3996 25.9873C48.3371 25.2764 48.1496 24.5781 47.8371 23.918C46.5496 21.2266 43.4871 19.9317 40.6996 20.9092C37.5621 22.0137 35.9371 25.6953 37.2371 28.8057C37.4746 29.377 37.7996 29.9102 38.1996 30.3799L33.7996 32.2842Z" fill="#FFEB6E"/>
</g>
<defs>
<clipPath id="clip0">
<rect width="64" height="65" fill="white"/>
</clipPath>
</defs>
</svg>
