<svg width="62" height="61" viewBox="0 0 62 61" fill="none" xmlns="http://www.w3.org/2000/svg">
<g clip-path="url(#clip0)">
<path d="M25.931 4.07758C14.1425 4.07758 4.58984 13.6303 4.58984 25.4187C4.58984 37.2071 14.1425 46.7598 25.931 46.7598C37.7194 46.7598 47.2721 37.2071 47.2721 25.4187C47.2594 13.643 37.7067 4.09028 25.931 4.07758ZM25.931 6.11006C32.2063 6.11006 38.0878 9.17149 41.6954 14.3162L39.1548 16.8568C38.5324 16.4884 37.8337 16.2852 37.1096 16.2725C34.8612 16.2725 33.0447 18.089 33.0447 20.3375C33.0447 21.0615 33.2479 21.7729 33.6163 22.3954L26.9599 29.0518C25.7023 28.2896 24.1144 28.2896 22.8568 29.0518L18.2329 24.4278C18.6013 23.8054 18.8045 23.094 18.8045 22.37C18.8045 20.1342 16.988 18.305 14.7523 18.305C12.8976 18.305 11.2843 19.5499 10.8143 21.3537H7.05423C8.9851 12.4743 16.8356 6.12277 25.931 6.11006ZM39.1421 20.3375C39.1421 21.4553 38.2275 22.37 37.1096 22.37C35.9918 22.37 35.0771 21.4553 35.0771 20.3375C35.0771 19.2196 35.9918 18.305 37.1096 18.305C38.2275 18.305 39.1421 19.2196 39.1421 20.3375ZM26.9472 32.5324C26.9472 33.6503 26.0326 34.5649 24.9147 34.5649C23.7968 34.5649 22.8822 33.6503 22.8822 32.5324C22.8822 31.4145 23.7968 30.4999 24.9147 30.4999C26.0326 30.4999 26.9472 31.4145 26.9472 32.5324ZM16.7848 22.37C16.7848 23.4878 15.8701 24.4024 14.7523 24.4024C13.6344 24.4024 12.7198 23.4878 12.7198 22.37C12.7198 21.2521 13.6344 20.3375 14.7523 20.3375C15.8701 20.3375 16.7848 21.2521 16.7848 22.37ZM35.3058 42.301C32.4349 43.8889 29.2083 44.7273 25.9182 44.7273C15.2604 44.74 6.62233 36.1019 6.60963 25.4441C6.60963 24.7581 6.64774 24.0722 6.72395 23.3862H10.827C11.2843 25.1773 12.8976 26.4222 14.7523 26.4349C15.4763 26.4349 16.1877 26.2317 16.8102 25.8633L21.4341 30.4872C21.0657 31.1096 20.8624 31.821 20.8624 32.5451C20.8624 34.7935 22.679 36.6101 24.9274 36.6101C27.1758 36.6101 28.9924 34.7935 28.9924 32.5451C28.9924 31.821 28.7891 31.1096 28.4207 30.4872L35.0771 23.8308C35.6996 24.1992 36.411 24.4024 37.135 24.4024C39.3835 24.4024 41.2 22.5859 41.2 20.3375C41.2 19.6134 40.9968 18.902 40.6284 18.2796L42.8387 16.0692C47.9834 25.3806 44.6298 37.1309 35.3058 42.301Z" fill="black"/>
<path d="M51.3374 10.1763C53.1793 10.1636 54.7926 8.91873 55.2626 7.1276H61.4998V5.09511H55.2499C54.7926 3.30398 53.1793 2.05908 51.3247 2.04638C49.0762 2.04638 47.2597 3.86292 47.2597 6.11135C47.2597 6.83543 47.4629 7.5468 47.8313 8.16925L46.0402 9.96037C37.5164 -1.18019 21.5741 -3.27619 10.4336 5.26025C-0.707001 13.7967 -2.7903 29.7517 5.75885 40.8923C13.8253 51.3977 28.6116 53.951 39.7268 46.7484L42.7882 49.8098L44.2237 51.2452L52.4044 59.426C54.4877 61.5093 57.854 61.5093 59.9373 59.426C62.0206 57.3427 62.0206 53.9764 59.9373 51.8931L51.7566 43.7123L50.3211 42.2769L47.247 39.2028C52.6966 30.8188 52.6966 20.0085 47.247 11.6245L49.2795 9.59199C49.9019 9.97308 50.6133 10.1763 51.3374 10.1763ZM51.3374 4.07887C52.4552 4.07887 53.3698 4.99349 53.3698 6.11135C53.3698 7.22922 52.4552 8.14384 51.3374 8.14384C50.2195 8.14384 49.3049 7.22922 49.3049 6.11135C49.3049 4.99349 50.2068 4.07887 51.3374 4.07887ZM58.5019 53.3285C59.7976 54.5989 59.823 56.6821 58.5527 57.9906C57.2824 59.2863 55.1991 59.3117 53.8907 58.0414C53.878 58.0287 53.8526 58.0033 53.8399 57.9906L45.6591 49.8098L50.3211 45.1478L58.5019 53.3285ZM48.8857 43.7123L44.2237 48.3744L41.4036 45.5543C41.5433 45.44 41.683 45.3256 41.8228 45.2113C41.9625 45.097 42.1277 44.9572 42.2801 44.8302C42.5087 44.6397 42.7247 44.4491 42.9406 44.2586C43.055 44.157 43.1566 44.0553 43.2709 43.9537C43.6901 43.5599 44.0966 43.1661 44.4777 42.7469C44.5793 42.6326 44.681 42.531 44.7826 42.4166C44.9731 42.2007 45.1637 41.9847 45.3542 41.7561C45.4813 41.6036 45.6083 41.4512 45.7353 41.2988C45.8496 41.159 45.964 41.0193 46.0783 40.8796L48.8857 43.7123ZM44.935 38.9868C44.6174 39.4314 44.2872 39.876 43.9315 40.2952C43.8299 40.4223 43.7155 40.5366 43.6139 40.6636C43.309 41.0193 42.9788 41.375 42.6485 41.718C42.5087 41.8704 42.3563 42.0101 42.2039 42.1626C41.8609 42.4929 41.5179 42.8104 41.1495 43.128C41.0225 43.2296 40.9082 43.344 40.7811 43.4456C40.3619 43.7886 39.9173 44.1188 39.4727 44.4491C28.9546 51.9693 14.3334 49.5303 6.8132 39.0122C-0.707001 28.4941 1.75739 13.8475 12.2882 6.34001C22.819 -1.16749 37.4275 1.25879 44.9477 11.7769C50.753 19.9196 50.753 30.8569 44.935 38.9868Z" fill="black"/>
<path d="M24.9153 34.5649C26.0378 34.5649 26.9478 33.6549 26.9478 32.5324C26.9478 31.4099 26.0378 30.4999 24.9153 30.4999C23.7928 30.4999 22.8828 31.4099 22.8828 32.5324C22.8828 33.6549 23.7928 34.5649 24.9153 34.5649Z" fill="#FFEB6E"/>
<path d="M58.502 53.3274C59.7977 54.5977 59.8231 56.681 58.5528 57.9894C57.2825 59.2851 55.1992 59.3105 53.8908 58.0402C53.8781 58.0275 53.8526 58.0021 53.8399 57.9894L45.6592 49.8086L50.3212 45.1466L58.502 53.3274Z" fill="#FFEB6E"/>
<path d="M37.1096 22.3701C38.2321 22.3701 39.1421 21.4601 39.1421 20.3376C39.1421 19.2151 38.2321 18.3051 37.1096 18.3051C35.9871 18.3051 35.0771 19.2151 35.0771 20.3376C35.0771 21.4601 35.9871 22.3701 37.1096 22.3701Z" fill="#FFEB6E"/>
<path d="M14.7532 24.4025C15.8757 24.4025 16.7857 23.4925 16.7857 22.37C16.7857 21.2475 15.8757 20.3375 14.7532 20.3375C13.6307 20.3375 12.7207 21.2475 12.7207 22.37C12.7207 23.4925 13.6307 24.4025 14.7532 24.4025Z" fill="#FFEB6E"/>
<path d="M51.3372 8.14255C52.4597 8.14255 53.3697 7.23257 53.3697 6.11006C53.3697 4.98755 52.4597 4.07758 51.3372 4.07758C50.2147 4.07758 49.3047 4.98755 49.3047 6.11006C49.3047 7.23257 50.2147 8.14255 51.3372 8.14255Z" fill="#FFEB6E"/>
</g>
<defs>
<clipPath id="clip0">
<rect width="61" height="61" fill="white" transform="translate(0.5)"/>
</clipPath>
</defs>
</svg>
